<mxfile host="app.diagrams.net" modified="2020-12-22T14:04:47.787Z" agent="5.0 (Windows NT 10.0; Win64; x64) AppleWebKit/537.36 (KHTML, like Gecko) Chrome/87.0.4280.88 Safari/537.36" etag="T75d6MzsxFucpmn6lxh2" version="14.1.1" type="github">
  <diagram id="K3VymbPLSnCYqZ96TUX-" name="Page-1">
    <mxGraphModel dx="1829" dy="682" grid="1" gridSize="10" guides="1" tooltips="1" connect="1" arrows="1" fold="1" page="1" pageScale="1" pageWidth="827" pageHeight="1169" math="0" shadow="0">
      <root>
        <mxCell id="0" />
        <mxCell id="1" parent="0" />
        <mxCell id="aNv0S2HLRLPsyPuWY0QS-1" value="" style="whiteSpace=wrap;html=1;aspect=fixed;fillColor=none;" vertex="1" parent="1">
          <mxGeometry x="220" y="260" width="210" height="210" as="geometry" />
        </mxCell>
        <mxCell id="aNv0S2HLRLPsyPuWY0QS-6" style="edgeStyle=orthogonalEdgeStyle;rounded=0;orthogonalLoop=1;jettySize=auto;html=1;exitX=1;exitY=0.5;exitDx=0;exitDy=0;entryX=0;entryY=0.5;entryDx=0;entryDy=0;" edge="1" parent="1" source="aNv0S2HLRLPsyPuWY0QS-2" target="aNv0S2HLRLPsyPuWY0QS-4">
          <mxGeometry relative="1" as="geometry" />
        </mxCell>
        <mxCell id="aNv0S2HLRLPsyPuWY0QS-2" value="拍照识别模块" style="rounded=0;whiteSpace=wrap;html=1;fillColor=none;gradientColor=none;" vertex="1" parent="1">
          <mxGeometry x="370" y="350" width="40" height="40" as="geometry" />
        </mxCell>
        <mxCell id="aNv0S2HLRLPsyPuWY0QS-3" value="&lt;span style=&quot;font-size: 12px ; font-weight: 400&quot;&gt;基于微信小程序的&lt;/span&gt;&lt;br style=&quot;font-size: 12px ; font-weight: 400&quot;&gt;&lt;span style=&quot;font-size: 12px ; font-weight: 400&quot;&gt;AI花卉识别和交流社区&lt;/span&gt;" style="text;strokeColor=none;fillColor=none;html=1;fontSize=24;fontStyle=1;verticalAlign=middle;align=center;" vertex="1" parent="1">
          <mxGeometry x="275" y="270" width="100" height="40" as="geometry" />
        </mxCell>
        <mxCell id="aNv0S2HLRLPsyPuWY0QS-8" style="edgeStyle=orthogonalEdgeStyle;rounded=0;orthogonalLoop=1;jettySize=auto;html=1;exitX=0;exitY=0.75;exitDx=0;exitDy=0;entryX=1;entryY=0.75;entryDx=0;entryDy=0;" edge="1" parent="1" source="aNv0S2HLRLPsyPuWY0QS-4" target="aNv0S2HLRLPsyPuWY0QS-2">
          <mxGeometry relative="1" as="geometry" />
        </mxCell>
        <mxCell id="aNv0S2HLRLPsyPuWY0QS-4" value="阿里云拍照识别花卉系统" style="rounded=0;whiteSpace=wrap;html=1;fillColor=none;gradientColor=none;" vertex="1" parent="1">
          <mxGeometry x="530" y="340" width="120" height="60" as="geometry" />
        </mxCell>
        <mxCell id="aNv0S2HLRLPsyPuWY0QS-7" value="发送照片，&lt;br&gt;申请调用接口" style="text;html=1;align=center;verticalAlign=middle;resizable=0;points=[];autosize=1;" vertex="1" parent="1">
          <mxGeometry x="425" y="335" width="90" height="30" as="geometry" />
        </mxCell>
        <mxCell id="aNv0S2HLRLPsyPuWY0QS-9" value="返回植物&lt;br&gt;信息列表" style="text;html=1;align=center;verticalAlign=middle;resizable=0;points=[];autosize=1;" vertex="1" parent="1">
          <mxGeometry x="430" y="385" width="60" height="30" as="geometry" />
        </mxCell>
        <mxCell id="aNv0S2HLRLPsyPuWY0QS-10" value="" style="rounded=0;whiteSpace=wrap;html=1;fillColor=none;gradientColor=none;" vertex="1" parent="1">
          <mxGeometry x="240" y="350" width="100" height="100" as="geometry" />
        </mxCell>
        <mxCell id="aNv0S2HLRLPsyPuWY0QS-11" value="个人主页模块" style="text;html=1;strokeColor=none;fillColor=none;align=center;verticalAlign=middle;whiteSpace=wrap;rounded=0;" vertex="1" parent="1">
          <mxGeometry x="270" y="360" width="40" height="20" as="geometry" />
        </mxCell>
        <mxCell id="aNv0S2HLRLPsyPuWY0QS-15" style="edgeStyle=orthogonalEdgeStyle;rounded=0;orthogonalLoop=1;jettySize=auto;html=1;exitX=0;exitY=0.25;exitDx=0;exitDy=0;entryX=1;entryY=0.5;entryDx=0;entryDy=0;" edge="1" parent="1" source="aNv0S2HLRLPsyPuWY0QS-12" target="aNv0S2HLRLPsyPuWY0QS-13">
          <mxGeometry relative="1" as="geometry" />
        </mxCell>
        <mxCell id="aNv0S2HLRLPsyPuWY0QS-12" value="&lt;font style=&quot;font-size: 11px&quot;&gt;微信用户登陆授权模块&lt;/font&gt;" style="rounded=0;whiteSpace=wrap;html=1;fillColor=none;gradientColor=none;" vertex="1" parent="1">
          <mxGeometry x="245" y="415" width="65" height="30" as="geometry" />
        </mxCell>
        <mxCell id="aNv0S2HLRLPsyPuWY0QS-18" style="edgeStyle=orthogonalEdgeStyle;rounded=0;orthogonalLoop=1;jettySize=auto;html=1;exitX=1.025;exitY=0.666;exitDx=0;exitDy=0;entryX=0.021;entryY=0.895;entryDx=0;entryDy=0;entryPerimeter=0;exitPerimeter=0;" edge="1" parent="1" source="aNv0S2HLRLPsyPuWY0QS-13" target="aNv0S2HLRLPsyPuWY0QS-1">
          <mxGeometry relative="1" as="geometry" />
        </mxCell>
        <mxCell id="aNv0S2HLRLPsyPuWY0QS-13" value="" style="rounded=0;whiteSpace=wrap;html=1;fillColor=none;gradientColor=none;" vertex="1" parent="1">
          <mxGeometry x="-70" y="370" width="120" height="110" as="geometry" />
        </mxCell>
        <mxCell id="aNv0S2HLRLPsyPuWY0QS-14" value="微信官方系统" style="text;html=1;strokeColor=none;fillColor=none;align=center;verticalAlign=middle;whiteSpace=wrap;rounded=0;" vertex="1" parent="1">
          <mxGeometry x="-30" y="400" width="40" height="20" as="geometry" />
        </mxCell>
        <mxCell id="aNv0S2HLRLPsyPuWY0QS-16" value="申请权限" style="text;html=1;align=center;verticalAlign=middle;resizable=0;points=[];autosize=1;" vertex="1" parent="1">
          <mxGeometry x="150" y="395" width="60" height="20" as="geometry" />
        </mxCell>
        <mxCell id="aNv0S2HLRLPsyPuWY0QS-17" value="返回微信用户信息&lt;br&gt;以及唯一的Openid" style="text;html=1;align=center;verticalAlign=middle;resizable=0;points=[];autosize=1;" vertex="1" parent="1">
          <mxGeometry x="70" y="460" width="110" height="30" as="geometry" />
        </mxCell>
      </root>
    </mxGraphModel>
  </diagram>
</mxfile>
